<svg width="313" height="315" xmlns="http://www.w3.org/2000/svg" xmlns:xlink="http://www.w3.org/1999/xlink" overflow="hidden"><defs><clipPath id="clip0"><rect x="117" y="202" width="313" height="315"/></clipPath><clipPath id="clip1"><rect x="118" y="203" width="312" height="314"/></clipPath><clipPath id="clip2"><rect x="118" y="203" width="312" height="314"/></clipPath><clipPath id="clip3"><rect x="118" y="203" width="312" height="314"/></clipPath><clipPath id="clip4"><rect x="118" y="203" width="313" height="314"/></clipPath></defs><g clip-path="url(#clip0)" transform="translate(-117 -202)"><g clip-path="url(#clip1)"><g clip-path="url(#clip2)"><g clip-path="url(#clip3)"><g clip-path="url(#clip4)"><path d="M589.017 465.572 443.65 465.572C441.721 465.572 440.16 464.014 440.16 462.089L440.16 345.97C440.16 344.044 441.721 342.486 443.65 342.486L589.017 342.486C590.946 342.486 592.508 344.044 592.508 345.97L592.508 462.089C592.508 464.014 590.946 465.572 589.017 465.572ZM447.141 458.603 585.531 458.603 585.531 426.865 447.141 426.865 447.141 458.603ZM447.141 419.9 585.531 419.9 585.531 388.16 447.141 388.16 447.141 419.9ZM447.141 381.192 585.531 381.192 585.531 349.453 447.141 349.453 447.141 381.192ZM424.267 465.572 366.12 465.572C327.452 465.572 294.793 432.953 294.793 394.352 294.793 355.743 327.452 323.133 366.12 323.133 369.377 323.133 371.48 323.365 373.989 323.762 386.54 302.096 408.403 274.75 453.342 274.75 486.253 274.75 517.14 293.987 533.934 324.952L527.8 328.271C512.225 299.561 483.694 281.717 453.342 281.717 420.342 281.717 397.375 296.396 378.854 329.307 378.128 330.584 376.655 331.271 375.22 331.039 371.703 330.439 369.764 330.1 366.12 330.1 331.242 330.1 301.77 359.527 301.77 394.352 301.77 429.186 331.242 458.603 366.12 458.603L424.267 458.603 424.267 465.572ZM482.416 446.218 463.033 446.218 463.033 439.253 482.416 439.253 482.416 446.218ZM482.416 407.513 463.033 407.513 463.033 400.545 482.416 400.545 482.416 407.513ZM482.416 368.806 463.033 368.806 463.033 361.839 482.416 361.839 482.416 368.806Z" fill="#F2F2F2" fill-rule="evenodd" fill-opacity="1" transform="matrix(1.00028 0 0 1 -168.94 -24.5665)"/></g></g></g></g></g></svg>