<svg width="314" height="315" xmlns="http://www.w3.org/2000/svg" xmlns:xlink="http://www.w3.org/1999/xlink" overflow="hidden"><defs><clipPath id="clip0"><rect x="886" y="202" width="314" height="315"/></clipPath><clipPath id="clip1"><rect x="887" y="203" width="312" height="314"/></clipPath><clipPath id="clip2"><rect x="887" y="203" width="312" height="314"/></clipPath><clipPath id="clip3"><rect x="887" y="203" width="312" height="314"/></clipPath><clipPath id="clip4"><rect x="887" y="203" width="312" height="314"/></clipPath></defs><g clip-path="url(#clip0)" transform="translate(-886 -202)"><g clip-path="url(#clip1)"><g clip-path="url(#clip2)"><g clip-path="url(#clip3)"><g clip-path="url(#clip4)"><path d="M1577.6 533.633 1519.39 533.633 1519.39 526.656 1577.6 526.656 1577.6 533.633ZM1587.31 514.25 1509.68 514.25 1509.68 507.273 1587.31 507.273 1587.31 514.25ZM1587.31 494.867 1509.68 494.867 1509.68 487.89 1587.31 487.89 1587.31 494.867ZM1587.31 475.484 1509.68 475.484C1507.76 475.484 1506.19 473.923 1506.19 471.994L1506.19 457.914C1506.19 442.193 1506.19 418.438 1486.39 397.874 1467.87 378.626 1457.68 354.233 1457.68 329.189 1457.68 276.884 1497.57 235.918 1548.5 235.918 1599.42 235.918 1639.31 276.884 1639.31 329.189 1639.31 354.233 1629.12 378.636 1610.6 397.864 1590.8 418.438 1590.8 442.193 1590.8 457.914L1590.8 471.994C1590.8 473.923 1589.24 475.484 1587.31 475.484ZM1513.18 468.507 1583.81 468.507 1583.81 457.914C1583.81 442.097 1583.81 415.629 1605.57 393.028 1622.82 375.088 1632.33 352.42 1632.33 329.18 1632.33 280.789 1595.5 242.886 1548.5 242.886 1501.49 242.886 1464.66 280.789 1464.66 329.18 1464.66 352.42 1474.16 375.088 1491.42 393.028 1513.18 415.629 1513.18 442.097 1513.18 457.914 1513.18 457.914 1513.18 468.507 1513.18 468.507Z" fill="#F2F2F2" fill-rule="evenodd" fill-opacity="1" transform="matrix(1.00028 0 0 1 -506.349 -24.5665)"/></g></g></g></g></g></svg>