<svg width="316" height="315" xmlns="http://www.w3.org/2000/svg" xmlns:xlink="http://www.w3.org/1999/xlink" overflow="hidden"><defs><clipPath id="clip0"><rect x="500" y="202" width="316" height="315"/></clipPath><clipPath id="clip1"><rect x="501" y="203" width="315" height="314"/></clipPath><clipPath id="clip2"><rect x="501" y="203" width="315" height="314"/></clipPath><clipPath id="clip3"><rect x="501" y="203" width="315" height="314"/></clipPath><clipPath id="clip4"><rect x="501" y="203" width="315" height="314"/></clipPath></defs><g clip-path="url(#clip0)" transform="translate(-500 -202)"><g clip-path="url(#clip1)"><g clip-path="url(#clip2)"><g clip-path="url(#clip3)"><g clip-path="url(#clip4)"><path d="M1107.11 533.633C1101.47 533.633 1098.5 531.733 1096.54 530.472 1094.19 528.961 1094.57 528.961 1092.22 530.472 1090.26 531.733 1087.29 533.633 1081.65 533.633 1066.89 533.633 1056.97 514.647 1056.97 496.913 1056.97 479.121 1064.62 468.499 1077.43 468.499 1082.28 468.499 1085.22 469.814 1087.8 470.958 1088.88 471.443 1089.85 471.873 1090.88 472.182L1090.88 462.307C1090.88 460.377 1092.44 458.816 1094.37 458.816 1097.79 458.816 1100.57 456.035 1100.57 452.615L1107.56 452.615C1107.56 458.67 1103.44 463.789 1097.87 465.33L1097.87 472.19C1098.91 471.881 1099.88 471.455 1100.95 470.971 1103.55 469.827 1106.48 468.507 1111.33 468.507 1124.14 468.507 1131.78 479.13 1131.78 496.922 1131.78 502.438 1130.82 508.116 1129.04 513.348 1124.69 526.046 1116.49 533.633 1107.11 533.633ZM1094.38 522.497C1097.03 522.497 1098.85 523.662 1100.3 524.601 1101.95 525.658 1103.51 526.656 1107.11 526.656 1114.47 526.656 1119.85 518.614 1122.44 511.081 1123.99 506.576 1124.8 501.669 1124.8 496.922 1124.8 488.917 1123.05 475.497 1111.33 475.497 1107.96 475.497 1106.02 476.357 1103.79 477.347 1101.37 478.42 1098.63 479.643 1094.37 479.643 1090.12 479.643 1087.38 478.42 1084.96 477.347 1082.72 476.349 1080.78 475.497 1077.41 475.497 1065.7 475.497 1063.94 488.917 1063.94 496.922 1063.94 510.956 1071.51 526.656 1081.64 526.656 1085.23 526.656 1086.79 525.658 1088.44 524.601 1089.91 523.662 1091.74 522.497 1094.38 522.497ZM1199.63 530.142 1192.65 530.142C1192.65 467.81 1146.36 411.601 1082.57 396.482 1081.12 396.134 1080.04 394.903 1079.91 393.41 1079.77 391.918 1080.59 390.503 1081.96 389.892 1109.69 377.546 1127.61 350.003 1127.61 319.718 1127.61 316.684 1127.43 313.68 1127.08 310.734L1092.98 310.734C1093.02 311.18 1093.04 311.635 1093.04 312.091 1093.04 322.025 1084.95 330.117 1075.01 330.117 1065.08 330.117 1056.99 322.034 1056.99 312.091 1056.99 308.67 1054.2 305.889 1050.78 305.889 1047.36 305.889 1044.58 308.67 1044.58 312.091 1044.58 322.025 1036.5 330.117 1026.55 330.117 1016.61 330.117 1008.53 322.034 1008.53 312.091 1008.53 311.635 1008.54 311.18 1008.58 310.734L974.465 310.734C974.114 313.68 973.939 316.684 973.939 319.718 973.939 350.003 991.86 377.546 1019.59 389.892 1020.95 390.503 1021.78 391.918 1021.64 393.41 1021.51 394.903 1020.43 396.134 1018.98 396.482 955.186 411.601 908.892 467.81 908.892 530.142L901.915 530.142C901.915 467.538 946.242 410.826 1008.54 392.063 983.012 377.148 966.961 349.664 966.961 319.718 966.961 273.51 1004.55 235.918 1050.77 235.918 1096.98 235.918 1134.57 273.51 1134.57 319.718 1134.57 349.654 1118.52 377.148 1092.99 392.063 1155.29 410.826 1199.63 467.538 1199.63 530.142ZM1075 301.043C1068.91 301.043 1063.95 306.005 1063.95 312.091 1063.95 318.177 1068.91 323.139 1075 323.139 1081.1 323.139 1086.05 318.177 1086.05 312.091 1086.05 306.005 1081.1 301.043 1075 301.043ZM1026.55 301.043C1020.46 301.043 1015.5 306.005 1015.5 312.091 1015.5 318.177 1020.46 323.139 1026.55 323.139 1032.63 323.139 1037.59 318.177 1037.59 312.091 1037.59 306.005 1032.63 301.043 1026.55 301.043ZM1090.98 303.756 1125.92 303.756C1118.56 269.033 1087.67 242.895 1050.77 242.895 1013.88 242.895 982.974 269.033 975.609 303.756L1010.56 303.756C1013.58 298 1019.61 294.065 1026.55 294.065 1032.95 294.065 1038.58 297.418 1041.78 302.468 1046.49 298.058 1055.06 298.058 1059.77 302.468 1062.97 297.418 1068.61 294.065 1075 294.065 1081.94 294.065 1087.97 298 1090.98 303.756Z" fill="#F2F2F2" fill-rule="evenodd" fill-opacity="1" transform="matrix(1.00318 0 0 1 -395.41 -24.5665)"/></g></g></g></g></g></svg>